<svg width="142" height="40" viewBox="0 0 142 40" fill="none" xmlns="http://www.w3.org/2000/svg">
<g clip-path="url(#clip0_203_4750)">
<path d="M75.2758 29.2479L64.716 17.6168L73.5862 10.7521H63.4187L55.0313 17.2571V10.7521H45.8594V29.2779H55.0313V25.141L58.2293 22.653L64.2635 29.2779L75.2758 29.2479ZM101.796 29.2479H110.756V10.7521H102.912L93.8307 19.7752L84.7494 10.7521H76.905V29.2779H85.8657V21.3639L93.8307 29.2779L101.826 21.3639V29.2479H101.796ZM141.742 14.7091V10.7521H114.045V29.2779H123.247V21.8136H138.483V17.8566H123.247V14.7091H141.742Z" fill="#2B2A29"/>
<path d="M19.5919 0.492903L10.269 9.75586L19.5919 19.0188L28.9147 9.75586L19.5919 0.492903Z" fill="#FFD500"/>
<path d="M19.5953 20.9949L10.2725 30.2578L19.5953 39.5208L28.9181 30.2578L19.5953 20.9949Z" fill="#E12E3F"/>
<path d="M9.30719 10.7449L-0.015625 20.0078L9.30719 29.2708L18.63 20.0078L9.30719 10.7449Z" fill="#E12E3F"/>
<path d="M29.9107 10.737L20.5879 20L29.9107 29.263L39.2335 20L29.9107 10.737Z" fill="#E12E3F"/>
</g>
<defs>
<clipPath id="clip0_203_4750">
<rect width="142" height="39" fill="white" transform="translate(0 0.5)"/>
</clipPath>
</defs>
</svg>
